# xmcd
# 
# Track frame offsets:
#     150
#     19262
#     40065
#     60032
#     75857
#     92130
#     104200
#     126542
# 
# Disc length: 1925
# 
# Revision: 2
# Processed by: cddbd v1.5.2PL0 Copyright (c) Steve Scherf et al.
# Submitted via: fre:ac v1.1beta1pre2
# 
DISCID=5e078308
DTITLE=Y.M.O - Solid State Survivor
DYEAR=1979
DGENRE=Instrumental
TTITLE0=Technopolis
TTITLE1=Absolute Ego Dance
TTITLE2=Rydeen
TTITLE3=Castalia
TTITLE4=Behind The Mask
TTITLE5=Day Tripper
TTITLE6=Isomnia
TTITLE7=Solid State Survivor
EXTD=YEAR: 1979
EXTT0=
EXTT1=
EXTT2=
EXTT3=
EXTT4=
EXTT5=
EXTT6=
EXTT7=
PLAYORDER=
